<svg xmlns="http://www.w3.org/2000/svg" viewBox="0 0 1000 1000"><defs><style>.cls-1{fill:#8c8787;}</style></defs><title>Visual Studio Team</title><g id="Icon2"><path class="cls-1" d="M561.46,565.37c-14.92-2.49-20.9-19.29-23.23-34.25-.36-2.29-.63-4.53-.83-6.67,12.62-13.64,22.1-33.36,26.26-53,3.14-1.23,14.78-6.83,16.11-22.76,1.54-18.43-7.68-15.36-7.68-15.36s12.61-61.75,4.7-84.78a16.54,16.54,0,0,0-3.16-5.82c-4.52-5-9.22-10.88-14.88-16.4a65.44,65.44,0,0,0-17.25-5.1,5.16,5.16,0,0,0-.52-1.54C539.24,316,531.73,307,500,305.83c-39.93-1.54-55.29,21.5-69.11,36.86s1.53,90.6,1.53,90.6-9.21-3.07-7.67,15.36c1.32,15.93,13,21.53,16.1,22.76,3.7,17.48,11.59,35,22.15,48.24-.2,3.47-.56,7.4-1.2,11.47-2.33,15-8.31,31.76-23.23,34.25-27.65,4.6-69.11,15.35-69.11,43v39.42c27.7,12.58,65,21.16,106.81,23.54h47.45c41.8-2.38,79.11-11,106.81-23.54V608.37C630.57,580.72,589.11,570,561.46,565.37Z"/><path class="cls-1" d="M716.46,521.82C704,519.74,699,505.68,697,493.17c-.3-1.91-.53-3.79-.7-5.58,10.56-11.4,18.49-27.9,22-44.36,2.63-1,12.36-5.71,13.47-19,1.29-15.42-6.42-12.85-6.42-12.85a367.44,367.44,0,0,0,5.55-39.43,29.95,29.95,0,0,0,3.76-36,28.68,28.68,0,0,0,.34-4.47,29.88,29.88,0,0,0-12.91-24.64,18,18,0,0,0-27.54-9s0,0,0,0,0,0,0,0a17.94,17.94,0,0,0-14.5-7.35,18.13,18.13,0,0,0-2.22.14A30,30,0,0,0,639,295a30,30,0,0,0-21,16.37,30,30,0,0,0-17,27c0,.55,0,1.09,0,1.63a18,18,0,0,0,1.52,24.38c.86,21.75,6,46.9,6,46.9s-7.7-2.57-6.42,12.85c1.11,13.32,10.85,18,13.47,19,3.1,14.62,9.7,29.27,18.53,40.35-.17,2.9-.47,6.19-1,9.59-2,12.51-6.95,26.57-19.44,28.65-17.44,2.91-41.46,8.74-52.2,21.36,1.25,2.25,2.4,3.28,3.1,3.4,20.73,3.45,37.12,8.2,50.11,14.52,28.85,14,34.91,33.44,34.91,47.26v2.09h35.31c35-2,66.16-9.17,89.33-19.69v-33C774.26,534.66,739.58,525.67,716.46,521.82Z"/><path class="cls-1" d="M675.72,324.94c.24.39.5.78.78,1.15-.33,0-.65-.13-1-.21A7.45,7.45,0,0,1,675.72,324.94Z"/><path class="cls-1" d="M685.59,332.61l0,0-.59.75C685.23,333.12,685.42,332.87,685.59,332.61Z"/><path class="cls-1" d="M690.48,323.07a5.35,5.35,0,0,1-.58.39,6.7,6.7,0,0,0,.23-.88C690.24,322.75,690.36,322.91,690.48,323.07Z"/><path class="cls-1" d="M177,294.68l-1.77-.08q-4.08-.17-8.24-.16h-1.21c1.38-.08,2.76-.12,4.16-.12,2.12,0,4.21.09,6.29.27C176.5,294.62,176.75,294.64,177,294.68Z"/><path class="cls-1" d="M880.83,481c-12.34-2.06-17.28-15.95-19.21-28.31,0-.3-.08-.6-.13-.89h18.4a15.94,15.94,0,0,0,12.9-6.61c10.4-14.34,16.61-33.46,16.61-56.87,0-56.09-35.53-93.95-79.35-93.95s-79.35,37.86-79.35,93.95c0,23.41,6.2,42.53,16.61,56.87a15.93,15.93,0,0,0,12.9,6.61H798.6c0,.29-.08.59-.13.89-1.93,12.36-6.86,26.25-19.2,28.31-18.2,3-43.62,9.29-53.23,23.25,14.61,2.82,26.51,6.51,36.24,11.24,25.58,12.44,31,29.89,31,42.34v9.32q8.43.93,17.2,1.45h39.23c34.56-2,65.4-9.07,88.3-19.47V516.5C938,493.65,903.68,484.77,880.83,481Z"/><path class="cls-1" d="M675.72,324.94c.24.39.5.78.78,1.15-.33,0-.65-.13-1-.21A7.45,7.45,0,0,1,675.72,324.94Z"/><path class="cls-1" d="M690.34,309.21c-.86-.37-1.8-.72-2.82-1.06l-1-.32c.46-.36.93-.71,1.41-1a17.35,17.35,0,0,1,1-2.39,14.77,14.77,0,0,1,.52,1.4A25.83,25.83,0,0,1,690.34,309.21Z"/><path class="cls-1" d="M690.34,309.21c-.86-.37-1.8-.72-2.82-1.06l-1-.32c.46-.36.93-.71,1.41-1a17.35,17.35,0,0,1,1-2.39,14.77,14.77,0,0,1,.52,1.4A25.83,25.83,0,0,1,690.34,309.21Z"/><path class="cls-1" d="M690.13,322.58c.11.17.23.33.35.49a5.35,5.35,0,0,1-.58.39A6.7,6.7,0,0,0,690.13,322.58Z"/><path class="cls-1" d="M694.55,297.8s0,0,0,0,0,0,0,0S694.53,297.79,694.55,297.8Z"/><path class="cls-1" d="M690.34,309.21c-.86-.37-1.8-.72-2.82-1.06q.16-.69.39-1.35a17.35,17.35,0,0,1,1-2.39,14.77,14.77,0,0,1,.52,1.4A25.83,25.83,0,0,1,690.34,309.21Z"/><path class="cls-1" d="M675.72,324.94c.24.39.5.78.78,1.15-.33,0-.65-.13-1-.21A7.45,7.45,0,0,1,675.72,324.94Z"/><path class="cls-1" d="M685.59,332.61l0,0-.59.75C685.23,333.12,685.42,332.87,685.59,332.61Z"/><path class="cls-1" d="M690.34,309.21c-.86-.37-1.8-.72-2.82-1.06l-1-.32c.46-.36.93-.71,1.41-1s1-.68,1.5-1A25.83,25.83,0,0,1,690.34,309.21Z"/><path class="cls-1" d="M690.48,323.07a5.35,5.35,0,0,1-.58.39,6.7,6.7,0,0,0,.23-.88C690.24,322.75,690.36,322.91,690.48,323.07Z"/><path class="cls-1" d="M675.72,324.94c.24.39.5.78.78,1.15-.33,0-.65-.13-1-.21A7.45,7.45,0,0,1,675.72,324.94Z"/><path class="cls-1" d="M690.34,309.21c-.86-.37-1.8-.72-2.82-1.06l-1-.32c.46-.36.93-.71,1.41-1a17.35,17.35,0,0,1,1-2.39,14.77,14.77,0,0,1,.52,1.4A25.83,25.83,0,0,1,690.34,309.21Z"/><path class="cls-1" d="M690.48,323.07a5.35,5.35,0,0,1-.58.39,6.7,6.7,0,0,0,.23-.88C690.24,322.75,690.36,322.91,690.48,323.07Z"/><path class="cls-1" d="M386.37,521.82c-12.48-2.08-17.48-16.14-19.43-28.65-.3-1.91-.52-3.79-.7-5.58,10.56-11.4,18.49-27.9,22-44.36,2.63-1,12.36-5.71,13.47-19,1.29-15.42-6.42-12.85-6.42-12.85s10.55-51.65,3.93-70.92a13.81,13.81,0,0,0-2.64-4.86c-3.78-4.2-7.71-9.1-12.45-13.72a54.8,54.8,0,0,0-14.42-4.27,4.6,4.6,0,0,0-.44-1.28c-1.45-3.05-7.73-10.55-34.25-11.56-.56,0-1.11,0-1.65,0l-.34-.53c-1.53.23-3.12.43-4.76.6s-3.26.21-4.81.4c-2.72.18-5.54.27-8.43.27-15.86,0-29.61-2.75-36.43-6.76a35.48,35.48,0,0,0-4.83,44.61c-4.86,21.06,4.74,68.06,4.74,68.06s-7.71-2.57-6.43,12.85c1.11,13.32,10.85,18,13.48,19,3.09,14.62,9.69,29.27,18.52,40.35-.17,2.9-.47,6.19-1,9.59-1.95,12.51-6.95,26.57-19.44,28.65-23.12,3.85-57.8,12.84-57.8,36v33c23.17,10.52,54.37,17.7,89.34,19.69h35.31v-2.09c0-13.82,6.05-33.24,34.9-47.26,13-6.32,29.39-11.07,50.12-14.52.69-.12,1.85-1.14,3.1-3.4C427.84,530.56,403.82,524.73,386.37,521.82Z"/><path class="cls-1" d="M220.73,481c-7.9-1.31-12.77.63-15.75-5.27l-.86-2.45c22.39-3.93,42.46-11.36,58.62-21.3-7.73-7.57-13.2-30.22-14.47-44.93a17.52,17.52,0,0,1,.11-3.62,122.33,122.33,0,0,0,.92-15.12c0-.59,0-1.17,0-1.75-.69-52.1-32.21-88.07-72.28-91.84l-1.77-.08q-4.08-.16-8.24-.16h-1.22c-.4,0-.8,0-1.21,0-41.79,2.43-75,39.6-75,93.81,0,1.92,0,3.8.13,5.66,0,1.23.12,2.46.22,3.66,0,.94,0,1.89,0,2.85,0,18.5-6.59,44.61-16.32,52.95,16.9,9.89,37.78,17.11,61,20.63l1,.14h0c-2.91,8.31-7.9,5.38-16.42,6.79C96.32,484.76,62,493.65,62,516.5v32.59c22.9,10.4,53.74,17.5,88.3,19.46h39.22q8.79-.49,17.21-1.44v-9.33c0-12.45,5.37-29.9,30.95-42.33,9.72-4.73,21.63-8.43,36.24-11.24C264.35,490.25,238.93,484,220.73,481Z"/></g></svg>