<?xml version="1.0" encoding="utf-8"?>
<!-- Generator: Adobe Illustrator 19.2.0, SVG Export Plug-In . SVG Version: 6.00 Build 0)  -->
<svg version="1.1" id="Layer_1" xmlns="http://www.w3.org/2000/svg" xmlns:xlink="http://www.w3.org/1999/xlink" x="0px" y="0px"
	 viewBox="0 0 879.6 459.6" style="enable-background:new 0 0 879.6 459.6;" xml:space="preserve">
<style type="text/css">
	.st0{fill:#6F6F6F;}
	.st1{fill:#57C5F3;}
</style>
<g id="Layer_1_1_">
</g>
<g id="Icon2">
</g>
<g id="Icon_1">
</g>
<g id="icon3">
	<g>
		<g>
			<path class="st0" d="M186.4,244.1c9.7-4.7,21.6-8.4,36.2-11.2c-9.6-14-35-20.2-53.2-23.3c-7.9-1.3-12.8,0.6-15.8-5.3l-0.9-2.4
				c22.4-3.9,42.5-11.4,58.6-21.3c-7.7-7.6-13.2-30.2-14.5-44.9c-0.1-1.2,0-2.4,0.1-3.6c0.6-4.8,0.9-9.9,0.9-15.1c0-0.6,0-1.2,0-1.8
				c-0.7-52.1-32.2-88.1-72.3-91.8c-0.6,0-1.2-0.1-1.8-0.1c-2.7-0.1-5.5-0.2-8.2-0.2c-0.4,0-0.8,0-1.2,0l0,0c-0.4,0-0.8,0-1.2,0
				c-41.8,2.4-75,39.6-75,93.8c0,1.9,0,3.8,0.1,5.7c0.1,1.2,0.1,2.5,0.2,3.7c0,0.9,0.1,1.9,0.1,2.8c0,18.5-6.6,44.6-16.3,53
				c16.9,9.9,37.8,17.1,61,20.6c0.3,0.1,0.6,0.1,0.9,0.1h0.1l0,0h-0.1c-2.9,8.3-7.9,5.4-16.4,6.8c-22.8,3.8-57.1,12.7-57.1,35.6v4.8
				l145,53.6v-16h-0.2v-1.2C155.5,274,160.8,256.5,186.4,244.1z"/>
			<path class="st0" d="M809.5,209.6c-12.3-2.1-17.3-15.9-19.2-28.3c0-0.3-0.1-0.6-0.1-0.9h18.4c5.1,0,9.9-2.5,12.9-6.6
				c10.4-14.3,16.6-33.5,16.6-56.9c0-56.1-35.5-94-79.4-94c-43.8,0-79.3,37.9-79.3,94c0,23.4,6.2,42.5,16.6,56.9
				c3,4.1,7.8,6.6,12.9,6.6h18.4c0,0.3-0.1,0.6-0.1,0.9c-1.9,12.4-6.9,26.2-19.2,28.3c-18.2,3-43.6,9.3-53.2,23.2
				c14.6,2.8,26.5,6.5,36.2,11.2c25.6,12.4,30.9,29.9,30.9,42.3v1.2l-0.1,15.8l144.9-53.4v-4.8C866.7,222.3,832.4,213.4,809.5,209.6
				z"/>
			<path class="st0" d="M329.1,285.7c13-6.3,29.4-11.1,50.1-14.5c0.7-0.1,1.9-1.1,3.1-3.4c-10.7-12.6-34.8-18.4-52.2-21.4
				c-12.5-2.1-17.5-16.1-19.4-28.7c-0.3-1.9-0.5-3.8-0.7-5.6c10.6-11.4,18.5-27.9,22-44.4c2.6-1,12.4-5.7,13.5-19
				c1.3-15.4-6.4-12.8-6.4-12.8S349.7,84.2,343,65c-0.7-2-1.5-3.7-2.6-4.9c-3.8-4.2-7.7-9.1-12.4-13.7c-7.3-3.4-14.4-4.3-14.4-4.3
				s-0.1-0.5-0.4-1.3c-1.4-3.1-7.7-10.6-34.2-11.6c-0.6,0-1.1,0-1.6,0c-0.1-0.2-0.2-0.3-0.3-0.5c-1.5,0.2-3.1,0.4-4.8,0.6
				c-1.7,0.1-3.3,0.2-4.8,0.4c-2.7,0.2-5.5,0.3-8.4,0.3c-15.9,0-29.6-2.8-36.4-6.8c-7,6.5-11,15.5-11,25.4c0,7.1,2.1,13.8,5.7,19.4
				c-4.9,21.1,4.7,68.1,4.7,68.1s-7.7-2.6-6.4,12.8c1.1,13.3,10.8,18,13.5,19c3.1,14.6,9.7,29.3,18.5,40.3c-0.2,2.9-0.5,6.2-1,9.6
				c-1.9,12.5-6.9,26.6-19.4,28.7c-23.1,3.8-57.8,12.8-57.8,36v26.1l125.1,46.2l-0.3-25.2C295.3,316.2,302.5,298.7,329.1,285.7z"/>
			<path class="st0" d="M500.2,284c-14.9-2.5-20.9-19.3-23.2-34.2c-0.4-2.3-0.6-4.5-0.8-6.7c12.6-13.6,22.1-33.4,26.3-53
				c3.1-1.2,14.8-6.8,16.1-22.8c1.5-18.4-7.7-15.4-7.7-15.4s12.6-61.8,4.7-84.8c-0.8-2.4-1.9-4.4-3.2-5.8c-4.5-5-9.2-10.9-14.9-16.4
				c-8.7-4-17.2-5.1-17.2-5.1s-0.1-0.6-0.5-1.5c-1.7-3.6-9.2-12.6-40.9-13.8C399,23,383.6,46,369.8,61.4
				c-13.8,15.4,1.5,90.6,1.5,90.6s-9.2-3.1-7.7,15.4c1.3,15.9,13,21.5,16.1,22.8c3.7,17.5,11.6,35,22.1,48.2
				c-0.2,3.5-0.6,7.4-1.2,11.5c-2.3,15-8.3,31.8-23.2,34.2c-27.6,4.6-69.1,15.3-69.1,43V360l130.4,48.1l130.6-48.3V327
				C569.3,299.4,527.8,288.6,500.2,284z"/>
			<path class="st0" d="M650.2,247.5c-12.5-2.1-17.5-16.1-19.4-28.7c-0.3-1.9-0.5-3.8-0.7-5.6c10.6-11.4,18.5-27.9,22-44.4
				c2.6-1,12.4-5.7,13.5-19c1.3-15.4-6.4-12.8-6.4-12.8s4-19.8,5.5-39.4c5-5.4,8.1-12.6,8.1-20.5c0-5.7-1.6-11-4.3-15.5
				c0.2-1.5,0.3-2.9,0.3-4.5c0-10.2-5.1-19.2-12.9-24.6c-2.4-7.2-9.1-12.4-17.1-12.4c-3.9,0-7.5,1.2-10.4,3.4l0,0l0,0
				c-3.3-4.5-8.6-7.4-14.5-7.4c-0.8,0-1.5,0.1-2.2,0.1c-4.8-3.2-10.6-5.1-16.8-5.1c-8.7,0-16.5,3.7-22,9.6c-9.3,1.9-17,8-21.1,16.4
				c-10.1,4.9-17,15.1-17,27c0,0.6,0,1.1,0.1,1.6c-2.5,3.1-4.1,7.1-4.1,11.4c0,5.1,2.1,9.7,5.6,13c0.9,21.8,6,46.9,6,46.9
				s-7.7-2.6-6.4,12.8c1.1,13.3,10.8,18,13.5,19c3.1,14.6,9.7,29.3,18.5,40.3c-0.2,2.9-0.5,6.2-1,9.6c-2,12.5-7,26.6-19.4,28.7
				c-17.4,2.9-41.5,8.7-52.2,21.4c1.2,2.2,2.4,3.3,3.1,3.4c20.7,3.5,37.1,8.2,50.1,14.5c28.9,14,34.9,33.4,34.9,47.3v2.1l0.2,18.5
				l124.4-46v-25.2C708,260.3,673.3,251.3,650.2,247.5z"/>
		</g>
		<polygon class="st1" points="441.9,417.9 438.7,419.1 435.5,417.9 10.7,260.9 10.7,281.9 410.3,429.6 438.7,440.1 467.1,429.6 
			866.7,281.9 866.7,260.9 		"/>
	</g>
</g>
</svg>
