<?xml version="1.0" encoding="UTF-8" standalone="no"?>
<!-- Created with Inkscape (http://www.inkscape.org/) -->

<svg
   xmlns:dc="http://purl.org/dc/elements/1.1/"
   xmlns:cc="http://creativecommons.org/ns#"
   xmlns:rdf="http://www.w3.org/1999/02/22-rdf-syntax-ns#"
   xmlns:svg="http://www.w3.org/2000/svg"
   xmlns="http://www.w3.org/2000/svg"
   xmlns:xlink="http://www.w3.org/1999/xlink"
   xmlns:sodipodi="http://sodipodi.sourceforge.net/DTD/sodipodi-0.dtd"
   xmlns:inkscape="http://www.inkscape.org/namespaces/inkscape"
   width="183.47609mm"
   height="51.658531mm"
   viewBox="0 0 650.11213 183.04204"
   id="svg4471"
   version="1.1"
   inkscape:version="0.91 r13725"
   sodipodi:docname="vistud.svg">
  <defs
     id="defs4473">
    <linearGradient
       inkscape:collect="always"
       xlink:href="#linearGradient7853"
       id="linearGradient4518"
       gradientUnits="userSpaceOnUse"
       x1="348.58997"
       y1="138.22585"
       x2="422.59619"
       y2="186.81845" />
    <linearGradient
       inkscape:collect="always"
       id="linearGradient7853">
      <stop
         style="stop-color:#000000;stop-opacity:1;"
         offset="0"
         id="stop7855" />
      <stop
         style="stop-color:#c32929;stop-opacity:1"
         offset="1"
         id="stop7857" />
    </linearGradient>
    <linearGradient
       inkscape:collect="always"
       xlink:href="#linearGradient7899"
       id="linearGradient4516"
       gradientUnits="userSpaceOnUse"
       x1="700.06677"
       y1="190.37854"
       x2="797.57861"
       y2="259.20639" />
    <linearGradient
       inkscape:collect="always"
       id="linearGradient7899">
      <stop
         style="stop-color:#3cb0ff;stop-opacity:1"
         offset="0"
         id="stop7901" />
      <stop
         style="stop-color:#7af9ff;stop-opacity:1"
         offset="1"
         id="stop7903" />
    </linearGradient>
    <linearGradient
       inkscape:collect="always"
       xlink:href="#linearGradient7853"
       id="linearGradient5093"
       gradientUnits="userSpaceOnUse"
       x1="348.58997"
       y1="138.22585"
       x2="422.59619"
       y2="186.81845" />
    <linearGradient
       inkscape:collect="always"
       xlink:href="#linearGradient7853"
       id="linearGradient5095"
       gradientUnits="userSpaceOnUse"
       x1="348.58997"
       y1="138.22585"
       x2="422.59619"
       y2="186.81845" />
  </defs>
  <sodipodi:namedview
     id="base"
     pagecolor="#ffffff"
     bordercolor="#666666"
     borderopacity="1.0"
     inkscape:pageopacity="0.0"
     inkscape:pageshadow="2"
     inkscape:zoom="0.67949219"
     inkscape:cx="144.49412"
     inkscape:cy="-11.002694"
     inkscape:document-units="px"
     inkscape:current-layer="g4389"
     showgrid="false"
     fit-margin-top="0"
     fit-margin-left="0"
     fit-margin-right="0"
     fit-margin-bottom="0"
     inkscape:window-width="1280"
     inkscape:window-height="715"
     inkscape:window-x="0"
     inkscape:window-y="0"
     inkscape:window-maximized="1" />
  <metadata
     id="metadata4476">
    <rdf:RDF>
      <cc:Work
         rdf:about="">
        <dc:format>image/svg+xml</dc:format>
        <dc:type
           rdf:resource="http://purl.org/dc/dcmitype/StillImage" />
        <dc:title></dc:title>
      </cc:Work>
    </rdf:RDF>
  </metadata>
  <g
     inkscape:label="Layer 1"
     inkscape:groupmode="layer"
     id="layer1"
     transform="translate(23.360178,-338.31747)">
    <g
       transform="translate(-867.74017,634.68034)"
       id="g4389"
       inkscape:export-xdpi="200"
       inkscape:export-ydpi="200">
      <g
         transform="matrix(1.3562969,0,0,1.3562969,-968.32692,-2402.9623)"
         id="g9931-0-5-5-3"
         inkscape:export-xdpi="200"
         inkscape:export-ydpi="200">
        <g
           id="g5191-8-2-6-4-8-8-7-9"
           transform="matrix(1.0058188,0,0,0.998177,1263.5452,1442.3565)">
          <g
             transform="matrix(0.91944105,0,0,0.91944105,4.3111027,14.408982)"
             id="g5065-2-9-0-7-2-7-6-7-8"
             style="opacity:1;fill:url(#linearGradient4518);fill-opacity:1">
            <g
               transform="matrix(1.043222,0,0,1.043222,-241.81005,13.862725)"
               id="g5038-4-2-1-2-7-1-1-4-9"
               style="fill:url(#linearGradient5095);fill-opacity:1">
              <g
                 id="g5035-4-5-6-6-9-4-1-5-6"
                 transform="matrix(1.092183,0,0,1.092183,-189.97274,-87.162139)"
                 style="fill:url(#linearGradient5093);fill-opacity:1">
                <path
                   sodipodi:nodetypes="sccccccsccccccsccccc"
                   inkscape:connector-curvature="0"
                   id="path4985-0-90-5-4-8-1-7-6-4"
                   d="m 726.84306,161.49138 c -27.74887,-1.9e-4 -50.24324,22.38674 -50.24305,50.00089 -1.9e-4,27.61414 22.49418,49.9993 50.24305,49.99911 21.83927,-0.0104 40.68012,-14.059 47.33748,-34.75787 -25.64095,25.55414 -57.09914,18.03172 -75.67761,-11.77684 6.13262,-10.18217 12.8129,-18.4533 24.37272,-23.06638 -2.95532,4.02811 -4.55203,8.88434 -4.56072,13.87184 5e-4,13.03081 10.6171,23.59319 23.71149,23.59281 13.09377,-4.9e-4 23.7074,-10.56262 23.7079,-23.59281 -0.009,-0.24775 -0.0209,-0.49603 -0.0375,-0.74339 -0.36046,-4.65228 -2.44446,-9.91625 -2.65209,-10.12289 -0.34607,-0.67601 -0.72494,-1.33436 -1.13482,-1.97407 5.21463,2.71591 9.81293,6.65699 14.29718,12.08629 -3.26821,-24.87251 -24.15741,-43.48549 -49.36401,-43.51669 z m 23.17534,32.15956 c 4.68817,1.8e-4 8.48863,3.78219 8.48882,8.4476 -1.9e-4,4.66541 -3.80065,8.44742 -8.48882,8.4476 -4.68816,-2e-4 -8.48861,-3.7822 -8.4888,-8.4476 1.9e-4,-4.6654 3.80064,-8.4474 8.4888,-8.4476 z"
                   style="opacity:1;fill:url(#linearGradient4516);fill-opacity:1;stroke:none;stroke-width:3.94586825;stroke-linejoin:miter;stroke-miterlimit:4;stroke-dasharray:none;stroke-opacity:1" />
              </g>
            </g>
          </g>
        </g>
      </g>
      <path
         sodipodi:nodetypes="ccccccc"
         inkscape:connector-curvature="0"
         id="path5168-2-2-4-2-7-0-5-1-1"
         style="font-style:normal;font-variant:normal;font-weight:normal;font-stretch:normal;font-size:158.2816925px;line-height:125%;font-family:'Tw Cen MT';-inkscape-font-specification:'Tw Cen MT';text-align:start;letter-spacing:7.94115591px;word-spacing:0px;writing-mode:lr-tb;text-anchor:start;fill:#cccccc;fill-opacity:1;stroke:#4d4d4d;stroke-width:0;stroke-linecap:butt;stroke-linejoin:miter;stroke-miterlimit:4;stroke-dasharray:none;stroke-opacity:1"
         d="m 844.38,-295.66736 19.2866,0 41.8225,98.07587 42.137,-98.07587 19.4961,0 -61.8428,141.61164 z"
         inkscape:export-xdpi="200"
         inkscape:export-ydpi="200" />
      <path
         sodipodi:nodetypes="ccccc"
         inkscape:connector-curvature="0"
         id="path5170-5-3-1-4-8-1-5-7-0"
         style="font-style:normal;font-variant:normal;font-weight:normal;font-stretch:normal;font-size:158.2816925px;line-height:125%;font-family:'Tw Cen MT';-inkscape-font-specification:'Tw Cen MT';text-align:start;letter-spacing:7.94115591px;word-spacing:0px;writing-mode:lr-tb;text-anchor:start;fill:#cccccc;fill-opacity:1;stroke:#808080;stroke-width:0;stroke-linecap:butt;stroke-linejoin:miter;stroke-miterlimit:4;stroke-dasharray:none;stroke-opacity:1"
         d="m 984.93567,-295.8411 18.02863,0 0,142.41091 -18.02863,0 z"
         inkscape:export-xdpi="200"
         inkscape:export-ydpi="200" />
      <path
         sodipodi:nodetypes="ccccc"
         inkscape:connector-curvature="0"
         id="path5174-4-1-7-0-9-9-7-2-9"
         style="font-style:normal;font-variant:normal;font-weight:normal;font-stretch:normal;font-size:158.2816925px;line-height:125%;font-family:'Tw Cen MT';-inkscape-font-specification:'Tw Cen MT';text-align:start;letter-spacing:7.94115591px;word-spacing:0px;writing-mode:lr-tb;text-anchor:start;fill:#cccccc;fill-opacity:1;stroke:#999999;stroke-width:0;stroke-linecap:butt;stroke-linejoin:miter;stroke-miterlimit:4;stroke-dasharray:none;stroke-opacity:1"
         d="m 1130.5209,-296.24107 18.0287,0 0,142.41118 -18.0287,0 z"
         inkscape:export-xdpi="200"
         inkscape:export-ydpi="200" />
      <path
         sodipodi:nodetypes="ccccccccc"
         inkscape:connector-curvature="0"
         id="path5178-1-6-7-4-4-3-2-1-2"
         style="font-style:normal;font-variant:normal;font-weight:normal;font-stretch:normal;font-size:158.2816925px;line-height:125%;font-family:'Tw Cen MT';-inkscape-font-specification:'Tw Cen MT';text-align:start;letter-spacing:7.94115591px;word-spacing:0px;writing-mode:lr-tb;text-anchor:start;fill:#cccccc;fill-opacity:1;stroke:#cccccc;stroke-width:0;stroke-linecap:butt;stroke-linejoin:miter;stroke-miterlimit:4;stroke-dasharray:none;stroke-opacity:1"
         d="m 1326.5276,-296.36286 98.7388,100.99732 0,-100.52859 18.2384,0 0,141.62941 -98.7388,-98.32217 0,98.6352 -18.2384,0 z"
         inkscape:export-xdpi="200"
         inkscape:export-ydpi="200" />
      <text
         transform="scale(0.94621649,1.0568406)"
         xml:space="preserve"
         style="font-style:normal;font-variant:normal;font-weight:normal;font-stretch:normal;font-size:423.06573486px;line-height:125%;font-family:sans-serif;-inkscape-font-specification:'sans-serif, Normal';text-align:start;letter-spacing:0px;word-spacing:0px;writing-mode:lr-tb;text-anchor:start;fill:#cccccc;fill-opacity:1;stroke:#666666;stroke-width:0;stroke-linecap:butt;stroke-linejoin:miter;stroke-miterlimit:4;stroke-dasharray:none;stroke-opacity:1"
         x="1072.4731"
         y="-147.34769"
         id="text5090-3-6-1-7-8-3-4-1-4-8-8"
         sodipodi:linespacing="125%"
         inkscape:export-xdpi="200"
         inkscape:export-ydpi="200"><tspan
           sodipodi:role="line"
           id="tspan5092-4-7-9-4-1-8-2-9-8-9-6"
           x="1072.4731"
           y="-147.34769"
           style="font-style:normal;font-variant:normal;font-weight:normal;font-stretch:normal;font-size:185.09127808px;font-family:'System Font';-inkscape-font-specification:'System Font';letter-spacing:10.5766449px;fill:#cccccc;fill-opacity:1;stroke:#666666;stroke-width:0;stroke-miterlimit:4;stroke-dasharray:none">S</tspan></text>
      <text
         inkscape:export-ydpi="200"
         inkscape:export-xdpi="200"
         sodipodi:linespacing="125%"
         id="text10058-3-6-7"
         y="-120.15311"
         x="1122.8116"
         style="font-style:normal;font-variant:normal;font-weight:normal;font-stretch:normal;font-size:37.49173355px;line-height:125%;font-family:sans-serif;-inkscape-font-specification:'sans-serif, Normal';text-align:start;letter-spacing:0px;word-spacing:0px;writing-mode:lr-tb;text-anchor:start;fill:#b3b3b3;fill-opacity:1;stroke:none;stroke-width:1px;stroke-linecap:butt;stroke-linejoin:miter;stroke-opacity:1"
         xml:space="preserve"
         transform="scale(1.0048172,0.99520589)"><tspan
           style="font-style:normal;font-variant:normal;font-weight:500;font-stretch:normal;font-size:29.46114922px;font-family:ROBOTO;-inkscape-font-specification:'ROBOTO Medium';letter-spacing:2.03088331px;fill:#b3b3b3;fill-opacity:1"
           y="-120.15311"
           x="1122.8116"
           id="tspan10060-0-0-6"
           sodipodi:role="line">Idea, art and technology</tspan></text>
      <g
         transform="matrix(1.3562969,0,0,1.3562969,-882.66341,-2373.9455)"
         id="g4539-5-9"
         inkscape:export-xdpi="200"
         inkscape:export-ydpi="200">
        <text
           sodipodi:linespacing="125%"
           id="text5090-3-6-1-7-8-3-1-4-2-4-0-7"
           y="1658.0594"
           x="-1730.6244"
           style="font-style:normal;font-variant:normal;font-weight:normal;font-stretch:normal;font-size:69.04120636px;line-height:125%;font-family:sans-serif;-inkscape-font-specification:'sans-serif, Normal';text-align:start;letter-spacing:0px;word-spacing:0px;writing-mode:lr-tb;text-anchor:start;fill:#58d1ff;fill-opacity:1;stroke:none;stroke-width:1px;stroke-linecap:butt;stroke-linejoin:miter;stroke-opacity:1"
           xml:space="preserve"
           transform="matrix(0,-0.94621542,1.0568418,0,0,0)"><tspan
             style="font-style:normal;font-variant:normal;font-weight:normal;font-stretch:normal;font-size:30.20553017px;font-family:'System Font';-inkscape-font-specification:'System Font';letter-spacing:1.72603035px;fill:#58d1ff;fill-opacity:1"
             y="1658.0594"
             x="-1730.6244"
             id="tspan5092-4-7-9-4-1-8-5-9-1-9-6-0"
             sodipodi:role="line">S</tspan></text>
        <path
           inkscape:connector-curvature="0"
           id="path6060-5-4-0-2-7"
           style="font-style:normal;font-variant:normal;font-weight:500;font-stretch:normal;font-size:118.75px;line-height:125%;font-family:Futura;-inkscape-font-specification:'Futura Medium';text-align:start;letter-spacing:10px;word-spacing:0px;writing-mode:lr-tb;text-anchor:start;fill:#58d1ff;fill-opacity:1;stroke:none;stroke-width:1px;stroke-linecap:butt;stroke-linejoin:miter;stroke-opacity:1"
           d="m 1732.7367,1608.6593 19.9439,0 0,2.9903 -19.9439,0 0,6.4247 -3.2965,0 0,-15.8269 3.2965,0 z"
           sodipodi:nodetypes="ccccccccc" />
        <path
           inkscape:connector-curvature="0"
           id="path6062-2-2-1-0-2"
           style="font-style:normal;font-variant:normal;font-weight:500;font-stretch:normal;font-size:118.75px;line-height:125%;font-family:Futura;-inkscape-font-specification:'Futura Medium';text-align:start;letter-spacing:10px;word-spacing:0px;writing-mode:lr-tb;text-anchor:start;fill:#58d1ff;fill-opacity:1;stroke:none;stroke-width:1px;stroke-linecap:butt;stroke-linejoin:miter;stroke-opacity:1"
           d="m 1729.44,1595.7669 13.749,0 q 2.9421,0 4.3022,-0.8342 1.9663,-1.2449 1.9663,-3.5036 0,-2.2717 -1.9663,-3.5165 -1.3158,-0.8342 -4.3022,-0.8342 l -13.749,0 0,-2.9903 14.6952,0 q 3.6073,0 5.9432,1.9507 2.602,2.1946 2.602,5.3903 0,3.1956 -2.602,5.3774 -2.3359,1.9508 -5.9432,1.9508 l -14.6952,0 0,-2.9904 z" />
        <path
           inkscape:connector-curvature="0"
           id="path6064-6-6-9-7-8"
           style="font-style:normal;font-variant:normal;font-weight:500;font-stretch:normal;font-size:118.75px;line-height:125%;font-family:Futura;-inkscape-font-specification:'Futura Medium';text-align:start;letter-spacing:10px;word-spacing:0px;writing-mode:lr-tb;text-anchor:start;fill:#58d1ff;fill-opacity:1;stroke:none;stroke-width:1px;stroke-linecap:butt;stroke-linejoin:miter;stroke-opacity:1"
           d="m 1752.423,1580.5979 -23.2404,0 0,-4.1581 q 0,-2.9903 0.6924,-4.7229 0.6774,-1.8609 2.303,-3.3753 3.2814,-3.0673 8.6248,-3.0673 5.3586,0 8.6701,3.1956 1.6557,1.6043 2.3029,3.3625 0.6472,1.6428 0.6472,4.6587 l 0,4.1068 z m -3.2964,-2.9902 0,-1.3476 q 0,-2.0149 -0.4967,-3.3496 -0.5268,-1.3348 -1.6707,-2.4128 -2.3632,-2.2075 -6.1564,-2.2075 -3.8232,0 -6.2014,2.1819 -2.1223,1.9635 -2.1223,5.788 l 0,1.3476 16.6475,0 z" />
        <path
           inkscape:connector-curvature="0"
           id="path6066-6-4-5-88-5"
           style="font-style:normal;font-variant:normal;font-weight:500;font-stretch:normal;font-size:118.75px;line-height:125%;font-family:Futura;-inkscape-font-specification:'Futura Medium';text-align:start;letter-spacing:10px;word-spacing:0px;writing-mode:lr-tb;text-anchor:start;fill:#58d1ff;fill-opacity:1;stroke:none;stroke-width:1px;stroke-linecap:butt;stroke-linejoin:miter;stroke-opacity:1"
           d="m 1729.1828,1558.7937 23.2404,0 0,2.9904 -23.2404,0 0,-2.9904 z" />
        <path
           inkscape:connector-curvature="0"
           id="path6068-8-6-9-24-6"
           style="font-style:normal;font-variant:normal;font-weight:500;font-stretch:normal;font-size:118.75px;line-height:125%;font-family:Futura;-inkscape-font-specification:'Futura Medium';text-align:start;letter-spacing:10px;word-spacing:0px;writing-mode:lr-tb;text-anchor:start;fill:#58d1ff;fill-opacity:1;stroke:none;stroke-width:0.66357154;stroke-linecap:butt;stroke-linejoin:miter;stroke-miterlimit:4;stroke-dasharray:none;stroke-opacity:1"
           d="m 1740.8363,1555.3035 q -4.7847,0 -8.2193,-3.4796 -3.4345,-3.465 -3.4345,-8.3278 0,-4.8044 3.4639,-8.2404 3.4638,-3.4505 8.322,-3.4505 4.8876,0 8.2927,3.4651 3.4197,3.4796 3.4197,8.4005 0,4.3532 -3.0381,7.8183 -3.3611,3.8144 -8.8064,3.8144 z m 0.045,-3.4213 q 3.7574,0 6.1791,-2.5042 2.4218,-2.4896 2.4218,-5.7508 0,-3.5378 -2.4658,-5.9692 -2.4952,-2.4314 -6.0763,-2.4314 -3.6254,0 -6.0764,2.4023 -2.4659,2.3877 -2.4659,5.9109 0,3.5087 2.4659,5.9255 2.4363,2.4169 6.0176,2.4169 z" />
      </g>
    </g>
  </g>
</svg>
