<svg xmlns="http://www.w3.org/2000/svg" viewBox="0 0 72 72"><title>Artboard 17</title><g id="_4_Networking" data-name="#4 Networking"><g id="B-4" data-name="B"><polygon points="61.23 47.37 42.28 42.52 47.09 61.51 51.48 57.14 60.65 66.34 65.62 61.39 56.42 52.19 61.23 47.37"/><path d="M43.84,65c-.24.06-.46.13-.7.18.21-.17.4-.37.6-.56l-.57-2.24A10.4,10.4,0,0,1,37,65.93V51.28l3.38,0-.5-2-2.88,0V37.94l-.25-1L37,37v0H51c0,1.21-.09,2.4-.18,3.57l2,.5c.1-1.33.19-2.68.21-4.07H66a29.74,29.74,0,0,1-1.12,7.17l2,.5A32,32,0,1,0,44.33,66.89ZM66,35H53a57.15,57.15,0,0,0-1.56-12.64c5.14,0,9.26-.07,11.23-.09A29.72,29.72,0,0,1,66,35ZM61.54,20.28l-10.64.09c-1.74-6-4.45-10.69-7.76-13.5A30.11,30.11,0,0,1,61.54,20.28ZM37,6.07c5,.67,9.33,6.23,11.8,14.31L37,20.44Zm0,16.37c4.28,0,8.54,0,12.36-.06A55.48,55.48,0,0,1,51,35H37ZM28.86,6.87c-3.33,2.83-6.06,7.6-7.79,13.6-4.82,0-8.61,0-10.67-.09A30.07,30.07,0,0,1,28.86,6.87ZM9.31,22.33c1.83.08,6,.13,11.23.14A57.46,57.46,0,0,0,19,35H6A29.72,29.72,0,0,1,9.31,22.33ZM9,49.08A29.68,29.68,0,0,1,6,37H19a57.84,57.84,0,0,0,1.43,12.11L9,49ZM10,51,21,51.12c1.73,6.19,4.5,11.12,7.91,14A30.08,30.08,0,0,1,10,51ZM35,65.93c-5.09-.68-9.49-6.45-11.94-14.79L35,51.26Zm0-16.67-12.48-.13A55.13,55.13,0,0,1,21,37H35ZM35,35H21a55.41,55.41,0,0,1,1.61-12.53H24.4c3.34,0,7,0,10.6,0Zm0-14.55c-4.23,0-8.25,0-11.83,0C25.64,12.34,30,6.74,35,6.07Z"/><polygon points="61.23 47.37 42.28 42.52 47.09 61.51 51.48 57.14 60.65 66.34 65.62 61.39 56.42 52.19 61.23 47.37"/></g></g></svg>