<svg xmlns="http://www.w3.org/2000/svg" viewBox="0 0 72 72"><defs><style>.cls-1{fill:none;stroke:#000;stroke-miterlimit:10;stroke-width:2px;}</style></defs><title>Artboard 21</title><g id="_5_Graphic" data-name="#5 Graphic"><g id="A-5" data-name="A"><rect x="50.68" y="53.68" width="6" height="2" transform="translate(-22.94 53.97) rotate(-45)"/><rect x="47.58" y="51.2" width="3" height="2" transform="translate(-22.54 50) rotate(-45)"/><rect x="43.61" y="46.61" width="6" height="2" transform="translate(-20.01 46.9) rotate(-45)"/><rect x="40.51" y="44.13" width="3" height="2" transform="translate(-19.61 42.92) rotate(-44.99)"/><rect x="22.39" y="25.39" width="6" height="2" transform="translate(-11.23 25.68) rotate(-45)"/><rect x="19.3" y="22.92" width="3" height="2" transform="translate(-10.82 21.71) rotate(-45.01)"/><rect x="15.32" y="18.32" width="6" height="2" transform="translate(-8.3 18.61) rotate(-45)"/><polygon points="9.88 61.28 15.29 59.84 11.33 55.88 9.88 61.28"/><line class="cls-1" x1="54" y1="20" x2="20.15" y2="53.56"/><polygon class="cls-1" points="50.85 11.54 59.34 20.03 20.39 58.97 9.66 61.21 11.91 50.49 50.85 11.54"/><polygon points="25.04 33.11 11.96 20.03 19.03 12.96 32.11 26.04 33.52 24.63 19.03 10.13 9.13 20.03 23.63 34.52 25.04 33.11"/><polygon points="44.84 38.77 60.04 53.97 52.97 61.04 37.77 45.84 36.35 47.25 52.97 63.87 62.87 53.97 46.25 37.35 44.84 38.77"/><rect x="25.84" y="30.21" width="3" height="0.5" transform="translate(-13.53 28.25) rotate(-45)"/></g></g></svg>