<svg xmlns="http://www.w3.org/2000/svg" viewBox="0 0 72 72"><defs><style>.cls-1,.cls-2{fill:none;stroke:#000;stroke-miterlimit:10;stroke-width:2px;}.cls-1{stroke-linecap:square;}</style></defs><title>Artboard 9</title><g id="_2_Web_App" data-name="#2 Web App"><g id="D-2" data-name="D"><line class="cls-1" x1="51" y1="45" x2="63" y2="45"/><line class="cls-1" x1="51" y1="50" x2="63" y2="50"/><line class="cls-1" x1="51" y1="55" x2="63" y2="55"/><rect x="10" y="19" width="8" height="26"/><rect x="43" y="19" width="8" height="9"/><rect x="54" y="25" width="8" height="3"/><rect x="21" y="25" width="8" height="20"/><rect x="32" y="31" width="8" height="14"/><path d="M42,66.32,41.68,66H30V59H41V57H9a3,3,0,0,1-3-3V50H42V48H6V18a3,3,0,0,1,3-3H63a3,3,0,0,1,3,3V28h2V18a5,5,0,0,0-5-5H9a5,5,0,0,0-5,5V54a5,5,0,0,0,5,5H28v7H22a1,1,0,0,0,0,2H42Z"/><rect class="cls-1" x="47" y="33" width="20" height="34" rx="2" ry="2"/><line class="cls-2" x1="47" y1="38" x2="67" y2="38"/><line class="cls-2" x1="47" y1="62" x2="67" y2="62"/></g></g></svg>